<?xml version="1.0" standalone="no"?>
<!DOCTYPE svg PUBLIC "-//W3C//DTD SVG 20010904//EN"
 "http://www.w3.org/TR/2001/REC-SVG-20010904/DTD/svg10.dtd">
<svg version="1.0" xmlns="http://www.w3.org/2000/svg"
 width="512.000000pt" height="512.000000pt" viewBox="0 0 512.000000 512.000000"
 preserveAspectRatio="xMidYMid meet">

<g transform="translate(0.000000,512.000000) scale(0.100000,-0.100000)"
fill="#000000" stroke="none">
<path d="M2015 4276 c-42 -18 -82 -69 -95 -119 -6 -23 -13 -48 -15 -54 -3 -9
-31 -13 -92 -13 -48 -1 -257 -7 -464 -14 l-377 -13 -45 -26 c-68 -40 -87 -87
-87 -219 l0 -106 -332 -82 c-183 -45 -351 -92 -373 -104 -46 -24 -82 -73 -91
-123 -5 -28 59 -299 296 -1242 170 -676 312 -1223 324 -1246 27 -50 86 -85
144 -85 24 0 424 95 889 212 801 200 848 213 891 246 l46 35 200 -43 201 -43
340 -178 c286 -150 348 -179 383 -179 54 0 100 19 133 56 38 41 1179 2214
1186 2258 7 46 -18 113 -55 149 -15 14 -306 173 -647 353 -964 507 -938 494
-987 494 -57 0 -105 -27 -147 -81 -19 -24 -41 -43 -50 -42 -9 1 -251 52 -538
113 -288 60 -542 110 -565 110 -24 -1 -57 -7 -73 -14z m240 -135 l130 -27
-109 -7 c-60 -4 -140 -7 -178 -7 -73 0 -81 7 -52 48 20 29 48 28 209 -7z
m1225 -112 c41 -22 64 -38 50 -35 -118 25 -186 40 -189 42 -10 8 24 34 43 34
11 -1 55 -19 96 -41z m-715 -49 c16 -18 21 -114 58 -1261 l41 -1242 -23 -18
c-19 -15 -40 -19 -106 -19 l-83 0 -16 65 c-23 93 -23 95 23 95 64 0 71 14 70
148 0 64 -15 553 -32 1086 l-33 968 -24 20 c-21 17 -35 19 -115 14 -49 -3
-176 -8 -281 -12 l-191 -6 -7 25 c-9 38 -55 88 -101 108 -22 10 -38 19 -35 20
8 3 632 26 741 27 84 2 98 0 114 -18z m587 -71 c260 -55 440 -97 451 -107 9
-8 17 -24 17 -35 0 -28 -498 -2387 -510 -2415 -6 -12 -20 -26 -32 -31 -19 -7
-146 15 -315 54 l-23 5 20 38 c11 20 20 54 20 74 0 43 -1 43 90 23 95 -21 127
-19 144 7 8 13 114 494 235 1071 171 805 219 1051 211 1066 -13 26 -3 23 -398
106 -188 40 -344 74 -346 76 -3 2 -8 39 -13 82 -7 61 -7 77 4 77 7 0 207 -41
445 -91z m-1927 -49 c-236 -61 -438 -110 -447 -110 -16 0 -18 10 -18 79 0 73
6 93 33 112 4 3 658 26 757 27 l105 1 -430 -109z m484 -27 c18 -15 72 -218
322 -1212 184 -730 298 -1203 295 -1217 -4 -13 -14 -27 -24 -32 -9 -5 -390
-103 -847 -217 -581 -146 -838 -207 -856 -202 -16 4 -31 18 -37 34 -6 16 -144
559 -307 1208 -267 1062 -295 1182 -283 1204 12 22 82 42 853 237 462 117 845
213 851 213 7 1 21 -7 33 -16z m2557 -322 c254 -133 470 -251 480 -262 15 -17
16 -25 7 -49 -18 -47 -1133 -2164 -1150 -2182 -9 -10 -26 -18 -37 -18 -12 0
-112 48 -223 106 l-202 105 33 30 c19 16 39 44 46 61 8 18 14 34 15 36 2 2 63
-29 137 -68 133 -69 176 -82 196 -57 28 33 1002 1900 1002 1920 0 12 -4 28 -8
35 -5 7 -195 110 -423 230 -376 199 -414 221 -413 243 1 13 5 52 9 86 l8 63
31 -19 c17 -10 239 -127 492 -260z m-1898 -421 c11 -338 19 -616 17 -618 -1
-1 -44 -5 -96 -8 l-94 -7 -155 622 -156 621 66 1 c36 1 137 4 225 8 88 3 163
4 166 1 4 -3 16 -282 27 -620z m760 538 c161 -34 202 -45 202 -58 0 -15 -246
-1186 -252 -1200 -2 -5 -320 57 -324 63 -1 1 -9 238 -18 527 -9 289 -19 577
-22 641 l-6 117 108 -24 c60 -13 200 -42 312 -66z m997 -358 c160 -84 294
-156 298 -159 10 -9 -563 -1101 -578 -1101 -5 1 -102 50 -215 110 -158 84
-205 113 -203 127 2 18 248 1186 259 1230 6 22 7 22 78 -16 39 -22 202 -107
361 -191z m-1731 -1012 c3 -51 9 -193 12 -315 6 -202 5 -223 -10 -223 -9 0
-16 2 -16 4 0 2 -34 136 -75 297 -41 162 -75 299 -75 306 0 11 33 17 121 21
l37 2 6 -92z m655 -14 c5 -4 -121 -598 -129 -607 -5 -5 -36 -3 -71 5 l-64 14
-6 70 c-4 38 -10 184 -14 326 l-7 256 144 -30 c78 -17 145 -32 147 -34z m545
-240 c99 -53 185 -100 190 -104 5 -5 -53 -127 -134 -282 -79 -150 -144 -275
-146 -277 -1 -1 -57 25 -124 60 -86 45 -120 68 -117 79 2 8 32 151 67 318 35
166 68 302 73 302 5 0 91 -43 191 -96z"/>
<path d="M1075 3484 c-379 -95 -702 -179 -717 -185 -15 -6 -30 -20 -33 -30 -4
-11 110 -484 256 -1065 235 -935 265 -1048 286 -1061 22 -15 69 -4 736 162
391 98 722 183 735 188 12 6 25 21 29 35 4 18 -343 1431 -508 2064 -12 47 -33
68 -67 67 -15 0 -337 -79 -717 -175z m684 14 c24 -75 291 -1162 288 -1171 -4
-12 -1285 -338 -1291 -329 -9 17 -300 1201 -296 1205 4 3 1254 321 1282 326 3
0 11 -14 17 -31z m402 -1601 c42 -166 75 -304 73 -306 -1 -2 -293 -76 -647
-166 l-645 -163 -76 305 c-42 168 -75 307 -74 309 4 3 1267 322 1283 323 6 1
44 -135 86 -302z"/>
</g>
</svg>
